<svg width="20" height="20" viewBox="0 0 20 20" fill="none" xmlns="http://www.w3.org/2000/svg">
<path d="M16.25 10.625C16.25 9.38887 15.8835 8.18049 15.1967 7.15269C14.5099 6.12488 13.5338 5.3238 12.3918 4.85075C11.2497 4.37771 9.99307 4.25393 8.78069 4.49509C7.56831 4.73625 6.45467 5.3315 5.58059 6.20558C4.70651 7.07966 4.11126 8.1933 3.8701 9.40569C3.62894 10.6181 3.75271 11.8747 4.22576 13.0168C4.69881 14.1588 5.49989 15.1349 6.52769 15.8217C7.5555 16.5084 8.76387 16.875 10 16.875C11.6576 16.875 13.2473 16.2165 14.4194 15.0444C15.5915 13.8723 16.25 12.2826 16.25 10.625ZM5.54884 3.56289C5.22086 3.28224 4.80393 3.12707 4.37227 3.125L4.26329 3.12813C3.26524 3.18828 2.49727 4.0625 2.50001 5.11719C2.50001 5.6332 2.68204 5.87383 2.92501 6.18086C2.9401 6.20059 2.95916 6.21693 2.98096 6.22884C3.00276 6.24075 3.02681 6.24796 3.05157 6.25H3.08594C3.1053 6.24965 3.12432 6.24486 3.14152 6.23598C3.15873 6.22711 3.17366 6.2144 3.18516 6.19883L5.55899 3.86719C5.57926 3.84669 5.5951 3.82224 5.60551 3.79536C5.61593 3.76848 5.6207 3.73974 5.61954 3.71094C5.61855 3.68273 5.61177 3.65502 5.5996 3.62955C5.58744 3.60408 5.57016 3.58139 5.54884 3.56289V3.56289ZM14.4457 3.56289C14.7737 3.28224 15.1906 3.12707 15.6223 3.125L15.7313 3.12813C16.7293 3.18828 17.4973 4.0625 17.4945 5.11719C17.4945 5.6332 17.3125 5.87383 17.0695 6.18086C17.0544 6.20052 17.0353 6.21679 17.0135 6.22863C16.9917 6.24047 16.9677 6.24762 16.943 6.24961H16.9086C16.8892 6.24926 16.8702 6.24447 16.853 6.23559C16.8358 6.22672 16.8209 6.21401 16.8094 6.19844L14.4356 3.86719C14.4153 3.84669 14.3994 3.82224 14.389 3.79536C14.3786 3.76848 14.3738 3.73974 14.375 3.71094C14.376 3.68273 14.3828 3.65502 14.3949 3.62955C14.4071 3.60408 14.4244 3.58139 14.4457 3.56289V3.56289Z" stroke="black" stroke-miterlimit="10"/>
<path d="M10 6.25V10.625H6.875M16.25 16.875L14.6875 15.3125M3.75 16.875L5.3125 15.3125" stroke="black" stroke-linecap="round" stroke-linejoin="round"/>
</svg>
